<?xml version="1.0" encoding="UTF-8"?>
<!-- Created with Inkscape (http://www.inkscape.org/) -->
<svg id="svg5" width="500" height="500" version="1.1" viewBox="0 0 132.29 132.29" xmlns="http://www.w3.org/2000/svg">
    <g id="layer1">
        <path id="path1724" d="m64.097 10.82c-0.72315 0-5.4257 4.0973-6.9075 5.6776-2.6555 2.8286-5.3784 8.9528-5.7064 12.819-0.17782 2.1169 0.30016 7.6662 0.90476 10.497 0.26871 1.2444 0.43514 3.2587 0.42724 5.1092-0.01581 3.5027-0.05546 3.5819-2.4897 5.0365-2.7148 1.6206-8.4805 5.1507-10.326 6.3216-0.99976 0.63424-2.2878 1.6862-2.8608 2.3378-2.2445 2.5496-5.2994 12.521-7.0618 23.065-0.49791 2.9104-1.1259 7.0994-1.1259 7.0994h36.815c0.44953-0.96919 1.1821-1.691 2.2504-2.2231 0.82474-0.41082 1.097-0.66973 1.4653-1.3925l0.45262-0.88816-0.31005-1.2182c-0.32486-1.2763-2.9012-6.7124-4.0414-8.5271-0.38012-0.60502-0.79494-1.056-0.96921-1.0542-0.1675 0.0018-1.0417 0.12541-1.9428 0.2749-0.90111 0.14944-2.243 0.27256-2.9823 0.27294-3.1477 0.0016-4.2568-1.0198-5.3915-4.9642-0.6573-2.2851-1.1543-3.2504-2.1518-4.1791-0.88774-0.82652-2.4438-1.705-3.0199-1.705-0.19766 0-0.40391-0.07289-0.45848-0.16211-0.19014-0.31075 2.3549-0.81063 4.5687-0.89744 2.7698-0.10863 4.4179 0.21969 6.7049 1.3364 1.8742 0.91514 3.1771 2.0708 4.2821 3.7977 0.83948 1.3119 1.0392 1.9593 1.2837 4.1615 0.1961 1.7665 0.30599 2.2451 0.51415 2.2451 0.07642 0 0.41645-0.39313 0.75584-0.87351 0.33939-0.48038 1.1607-1.5768 1.8251-2.4365 0.66446-0.85963 1.4191-1.9355 1.6772-2.3906 0.58674-1.0345 1.3316-3.2924 1.4858-4.5048l0.11718-0.91941-1.479-0.69871c-2.3851-1.1269-3.6158-2.6719-4.1522-5.2127-0.3138-1.4863-0.87876-8.7129-0.77195-9.8738 0.0079-0.08582 1.0176 0.87204 2.2441 2.1284 1.2265 1.2563 3.1 3.0812 4.163 4.0556s2.0664 2.0567 2.2299 2.4047c0.53474 1.1382 0.39008 2.467-0.52196 4.7963-0.45056 1.1507-0.81882 2.2136-0.81882 2.3618 0 0.14824-0.28676 1.3892-0.63719 2.7582-0.35043 1.369-0.63719 2.6226-0.63719 2.7856 0 0.57303 1.0362-0.20594 2.0063-1.5083 1.6354-2.1954 2.5443-2.6483 5.2904-2.6352 1.3971 6e-3 1.8527 0.09733 3.3935 0.67625 1.8956 0.71219 4.9652 2.2302 4.9652 2.4555 0 0.25173-8.2735 3.4818-9.4949 3.7069-1.9747 0.36391-3.4461-0.29535-4.5551-2.0405l-0.29247-0.45995-0.6782 0.36278c-1.0277 0.54928-4.3844 4.3115-4.6522 5.2142-0.40106 1.3521 0.10188 2.6663 2.3007 6.0135 1.6636 2.5325 2.2589 3.8045 2.2612 4.8329 0.0022 0.9478-0.08729 1.1291-1.5009 3.0492-0.24064 0.32686-0.48313 0.69502-0.72215 1.0747h33.519c-0.41492-2.4263-0.83395-4.9605-1.1738-7.5042-1.7308-8.6585-2.5289-12.319-3.0268-13.902-1.4186-4.5211-4.0148-9.3467-5.7298-10.652-0.8259-0.6295-12.132-6.614-13.87-7.3431-0.72315-0.30349-0.87719-0.52146-0.89695-1.2426-0.011855-0.48052-0.68794-7.5677-0.18212-11.381 1.5649-11.759-1.0035-14.14-4.0067-18.664-1.7427-2.6263-9.0926-7.2757-10.357-7.2757zm5.7249 77.964h-4.0556c-0.06581 0.14189-0.12534 0.28871-0.1792 0.44139-0.5706 1.6178-1.5163 3.4546-2.1826 4.2396-0.83343 0.98206-2.9606 2.3187-4.3739 2.748-0.82691 0.25114-1.7116 0.33173-3.641 0.33251-2.2446 7.98e-4 -2.6661-0.04871-3.5341-0.41796-0.86541-0.36808-0.95523-0.379-0.7368-0.08838 0.92086 1.2252 1.7299 1.7622 3.0048 1.9941 1.2516 0.22756 1.2525 0.20206-0.09033 2.6156-0.68822 1.237-1.1746 2.249-1.081 2.249 0.09358 0 0.68019-0.72216 1.3037-1.6044 0.62349-0.88235 1.4462-1.9089 1.8281-2.2812 0.6256-0.60988 0.84549-0.69842 2.2197-0.89548 0.8389-0.12027 2.1784-0.44692 2.9765-0.72606 1.6688-0.58365 1.6427-0.74093 0.29882 1.8198-0.50062 0.95391-1.3506 2.2167-1.8891 2.8066-2.9435 3.2246-8.1523 5.8764-11.575 5.8905-0.8666 4e-3 -1.779-0.10759-2.2372-0.27343-0.93691-0.33919-0.9924-0.14296-0.14453 0.51024 0.78383 0.60388 2.0707 1.0054 3.2231 1.0054 0.48471 0 0.88084 0.0384 0.88084 0.0854 0 0.0471-0.24566 0.47755-0.54637 0.95652-0.30071 0.47896-0.71731 1.3299-0.92527 1.8911-0.44401 1.1981-1.807 5.8571-1.7998 6.1507 0.0028 0.11115 0.40244-0.72125 0.88816-1.85 1.0825-2.5156 2.299-4.6089 3.5165-6.0511 1.0875-1.2882 1.427-1.55 2.2534-1.7382 0.7175-0.16346 0.72424-0.13818 0.34862 1.2876-0.407 1.5448-0.51555 4.2247-0.29491 7.2669 0.26202 3.6129 0.52784 4.5657 0.5493 1.9692 0.02795-3.3795 0.48727-6.5456 1.3823-9.5237l0.44677-1.4863 1.5258-0.68699c2.6142-1.1766 5.2037-3.6112 6.7132-6.3128 0.30261-0.54159 0.58077-0.95367 0.61864-0.9155 0.03786 0.0382-0.17865 1.9246-0.48143 4.1918-1.059 7.9291-1.0866 9.398-0.33739 17.924 0.14266 1.6237 0.15541 2.8597 0.03906 3.8153-0.09461 0.77747-0.14534 1.4135-0.1123 1.4135 0.12669 0 0.45884-1.0636 0.71726-2.2983 0.18234-0.87119 0.31865-3.2483 0.42186-7.3553 0.1425-5.67 0.19395-6.3212 0.78709-9.9294 0.34912-2.1238 0.69349-4.3859 0.76511-5.0272 0.07163-0.6413 0.18587-1.0962 0.2539-1.0112 0.53189 0.6652 4.8249 10.017 5.1883 11.302 1.0507 3.7152 1.1078 10.45 0.12988 15.329v4.9e-4c-0.3104 1.5486-0.31004 1.5852 0.01123 1.1679 0.57033-0.7408 0.88812-2.1668 1.1621-5.2118 0.14558-1.6181 0.33778-3.737 0.42675-4.7089 0.08898-0.97182 0.27452-1.9848 0.41259-2.2509 0.24476-0.47187 0.28182-0.41162 1.4912 2.4106 1.2562 2.9316 2.4099 5.1176 2.9311 5.5545 0.16611 0.13923 0.02134-0.32942-0.34569-1.1186-0.70514-1.5161-1.7651-4.9179-2.31-7.4144-0.25546-1.1703-0.67146-2.2557-1.4443-3.7694-2.5131-4.9222-5.8138-12.677-5.8138-13.659 0-0.08408 0.54161 0.2663 1.2036 0.77879 0.66197 0.51249 1.6016 1.1356 2.0883 1.3847 0.81998 0.41971 0.90637 0.53068 1.1743 1.5097 1.1384 4.1601 1.4086 4.7973 3.7279 8.7839 1.9614 3.3713 2.7262 4.9835 3.3656 7.0965l0.4663 1.5415-0.08105-1.3794c-0.11194-1.905-0.63296-3.3674-2.7177-7.6306-1.6491-3.3725-1.8474-3.8948-2.3891-6.2977l-0.59081-2.6205 2.019 4e-3c2.3206 5e-3 3.2191 0.28688 5.159 1.6186 1.2882 0.88437 1.4556 0.756 0.4619-0.35497-1.3283-1.485-3.2204-2.5605-7.0823-4.0258-2.9649-1.1249-4.4884-1.9279-5.5936-2.9482-1.1329-1.0459-1.9399-2.4996-1.9399-3.4945 0-0.75709 1.0164-2.9375 2.1445-4.7294z" stroke-width=".18296"/>
        <g id="layer1-2" transform="matrix(.94486 0 0 .94486 -25.912 -27.508)"></g>
        <path id="path2233" d="m14.217 94.231c0.24738-1.2969 1.0616-6.5484 1.637-9.2216v-0.0046c1.2571-5.9781 2.9785-11.803 4.7728-16.46 1.7942-4.6572 3.8526-8.2401 4.9962-9.2726v-8.1e-4c0.59037-0.53363 2.4747-1.7823 3.7546-2.4277 2.6106-1.3165 10.945-5.373 14.831-7.2168v-8.1e-4c1.7609-0.83637 3.0237-1.3966 3.7491-2.5629 0.72547-1.1663 0.65104-2.3439 0.66247-4.3536 0.01192-2.202-0.21654-4.5297-0.65246-6.1355v-0.0027c-0.81402-3.0309-1.4857-9.5924-1.2716-11.618 0.41907-3.9195 4.3803-10.998 7.7638-13.863v-8.08e-4c0.95493-0.80941 3.1896-2.4472 5.2384-3.8182 1.0245-0.68552 2.0153-1.3136 2.7721-1.7483 0.35892-0.20615 0.65428-0.35991 0.85813-0.45497l0.0056 4.48e-5c0.05951 0.014159 0.02334 0.00724 0.26337 0.08481 0.38506 0.12438 0.91635 0.32592 1.525 0.58396 1.2173 0.51606 2.7531 1.2561 4.3049 2.0867 3.1036 1.6612 6.348 3.8374 7.2503 4.9181v8.09e-4c2.2099 2.6458 4.0623 4.4745 5.1463 7.2318 1.0839 2.7574 1.4645 6.585 0.35568 13.207-0.39517 2.368-0.31744 5.5091-0.16117 8.1842 0.07811 1.3375 0.17943 2.5511 0.2623 3.464 0.08285 0.91285 0.14973 1.6868 0.14672 1.5902v0.0039c0.0177 0.50498 0.09722 1.102 0.58575 1.6414 0.48856 0.53938 1.1316 0.78269 1.7462 0.98769 0.93473 0.31152 5.8223 2.2909 10.342 4.1928 2.2601 0.95094 4.4802 1.899 6.201 2.6503 0.8604 0.37568 1.5966 0.70287 2.1441 0.95324 0.54746 0.25037 0.99283 0.4846 0.91476 0.4373v8.09e-4c0.76109 0.46027 2.3747 2.147 3.8191 4.2812 1.4444 2.1341 2.8567 4.7475 3.8413 7.2416v8.08e-4c0.64734 1.6362 1.8226 5.8667 4.3059 15.739 0.40201 2.3848 1.3642 7.3604 1.8491 9.655l3.525 0.05219-0.339-1.5761c-0.59645-2.7721-1.197-5.6571-1.6817-8.5411l-7e-3 -0.04328-0.0119-0.04239c-2.494-9.9165-3.6179-14.066-4.4037-16.052v-8.1e-4c-1.0584-2.6807-2.5372-5.416-4.0903-7.7107-1.5529-2.2944-3.0434-4.1162-4.7517-5.1496-0.37537-0.22743-0.69894-0.36448-1.2793-0.62989-0.58035-0.26541-1.3306-0.59886-2.203-0.97974-1.7447-0.76175-3.9746-1.7138-6.2466-2.6698-4.5439-1.9119-9.0488-3.774-10.618-4.2971v8.09e-4c-0.42688-0.14238-0.41572-0.19841-0.30566-0.07686 0.10952 0.12085 0.06477 0.17558 0.05349-0.1387-0.01153-0.37112-0.07309-0.81639-0.15451-1.7139-0.08169-0.89933-0.18051-2.0901-0.25677-3.3951-0.15246-2.6095-0.19753-5.7067 0.13561-7.7036v-8.09e-4c1.1452-6.8368 0.80265-11.102-0.4807-14.367-1.2834-3.2647-3.4424-5.3877-5.5575-7.92-1.6071-1.9254-4.9109-3.9126-8.1825-5.6638-1.6358-0.87556-3.2448-1.6533-4.6027-2.2289-0.67898-0.28784-1.2929-0.52572-1.8451-0.7041-0.55224-0.17839-0.95202-0.33306-1.6995-0.33306l0.0011-7.24e-5c-0.93125 0-1.1073 0.21223-1.4828 0.38342-0.37545 0.17118-0.76749 0.38198-1.2037 0.63254-0.87252 0.50112-1.9045 1.1581-2.97 1.8711-2.1311 1.426-4.3495 3.0379-5.5286 4.0373-4.2642 3.6107-8.1444 10.55-8.6708 15.482v8.09e-4c-0.29803 2.8199 0.40775 8.9597 1.3349 12.41v0.00281c0.33764 1.2429 0.58667 3.5243 0.57574 5.5577-0.0114 1.9997-0.12503 2.8722-0.31009 3.1698-0.18512 0.29756-0.70402 0.61491-2.4487 1.4435-3.9334 1.8663-12.204 5.891-14.908 7.2548-1.5996 0.80658-3.426 1.9661-4.486 2.9242-2.0884 1.8861-3.8454 5.4688-5.6931 10.265-1.8479 4.7966-3.5941 10.713-4.875 16.805-0.72251 3.3572-1.6272 8.1489-1.6272 8.1489l-0.2912 1.5487z" color="#000000" style="-inkscape-stroke:none"/>
    </g>
</svg>
