<?xml version="1.0" standalone="no"?>
<!DOCTYPE svg PUBLIC "-//W3C//DTD SVG 20010904//EN"
 "http://www.w3.org/TR/2001/REC-SVG-20010904/DTD/svg10.dtd">
<svg version="1.0" xmlns="http://www.w3.org/2000/svg"
 width="700.000000pt" height="700.000000pt" viewBox="0 0 700.000000 700.000000"
 preserveAspectRatio="xMidYMid meet">
<metadata>
Created by potrace 1.14, written by Peter Selinger 2001-2017
</metadata>
<g transform="translate(0.000000,700.000000) scale(0.100000,-0.100000)"
fill="#000000" stroke="none">
<path d="M3309 6536 c-2 -2 -44 -7 -93 -10 -89 -7 -149 -14 -196 -22 -14 -2
-41 -7 -60 -10 -58 -9 -262 -55 -305 -69 -22 -7 -65 -20 -95 -29 -183 -56
-504 -199 -602 -267 -14 -11 -28 -19 -31 -19 -6 0 -84 -50 -186 -119 -227
-153 -528 -446 -704 -686 -20 -27 -40 -54 -45 -60 -14 -18 -128 -200 -155
-247 -67 -116 -150 -294 -200 -428 -70 -188 -144 -474 -162 -630 -3 -30 -8
-66 -10 -80 -26 -174 -26 -516 -1 -718 19 -149 22 -161 47 -282 32 -150 97
-364 144 -475 60 -142 85 -196 141 -303 128 -248 319 -507 524 -712 161 -162
301 -280 445 -375 33 -22 62 -43 63 -47 2 -5 7 -8 11 -8 4 0 46 -23 92 -51 88
-53 301 -162 379 -193 156 -61 366 -129 468 -151 9 -2 49 -10 87 -19 93 -20
112 -23 181 -31 33 -4 68 -9 79 -11 49 -10 202 -17 345 -18 143 0 365 10 379
18 3 2 31 7 61 10 196 23 547 117 720 193 19 8 51 22 70 31 54 23 250 121 300
150 59 34 308 201 340 229 14 11 66 55 116 96 166 138 389 385 527 583 63 91
182 296 231 399 97 201 192 467 222 620 2 11 11 52 19 90 8 39 17 81 19 95 2
14 7 41 10 60 23 141 31 259 31 470 -1 168 -6 272 -19 370 -7 51 -20 134 -21
140 -1 3 -5 25 -9 50 -5 25 -10 52 -11 60 -11 58 -62 242 -90 325 -325 981
-1127 1731 -2121 1985 -83 22 -182 44 -220 50 -38 6 -81 13 -95 15 -37 7 -105
15 -164 21 -58 6 -451 14 -456 10z m423 -521 c40 -4 80 -9 88 -10 8 -1 40 -6
70 -11 30 -4 57 -8 60 -9 3 -1 32 -7 65 -14 188 -40 377 -106 564 -196 135
-66 281 -151 281 -164 0 -4 -37 -42 -83 -83 -149 -136 -225 -217 -281 -301
-71 -106 -96 -166 -96 -229 0 -39 -3 -48 -12 -41 -32 25 -193 106 -274 137
-89 34 -247 80 -314 90 -19 4 -79 12 -132 18 l-98 12 0 402 c0 220 2 403 5
406 6 5 54 3 157 -7z m-417 -404 l0 -405 -85 -12 c-218 -32 -444 -114 -642
-234 -36 -21 -38 -21 -38 -3 -1 48 -14 102 -33 143 -18 36 -124 189 -147 210
-3 3 -22 25 -44 50 -21 25 -83 91 -138 147 l-100 102 58 37 c96 62 331 178
449 222 175 65 418 125 561 138 38 4 70 8 72 9 2 2 22 2 45 1 l42 -1 0 -404z
m355 -664 c157 -23 297 -63 432 -126 74 -34 229 -127 268 -161 14 -12 31 -25
37 -29 21 -11 24 -89 4 -108 -35 -35 -221 -150 -326 -201 -202 -99 -276 -162
-344 -293 -61 -119 -74 -183 -75 -357 0 -69 3 -96 15 -107 14 -15 168 -72 218
-81 14 -3 28 -7 33 -10 10 -7 184 -6 223 1 79 14 134 30 183 52 50 23 220 145
268 190 32 32 137 101 178 118 34 14 40 14 81 -4 48 -21 57 -40 71 -156 23
-193 7 -391 -47 -583 -110 -390 -406 -739 -778 -916 l-94 -44 -44 21 c-29 14
-46 30 -51 47 -6 23 -6 143 0 515 3 174 -6 206 -91 337 -45 68 -68 91 -188
188 -26 21 -141 80 -156 80 -21 0 -151 -105 -208 -168 -52 -57 -115 -173 -149
-272 -29 -84 -30 -222 -5 -380 2 -14 8 -47 12 -75 5 -27 8 -87 7 -133 -1 -93
-7 -104 -84 -151 l-46 -29 -80 32 c-299 119 -578 369 -732 656 -71 132 -137
317 -156 440 -23 140 -26 362 -6 470 20 115 29 140 50 140 10 0 21 -4 24 -9 3
-5 25 -19 48 -31 65 -34 196 -123 263 -180 57 -49 178 -134 193 -136 4 0 23
-8 42 -16 97 -44 265 -44 407 0 50 16 155 64 187 85 l28 20 -6 94 c-12 158
-43 256 -122 381 -78 121 -146 175 -357 279 -145 72 -241 133 -257 163 -13 24
-10 93 4 112 30 38 220 160 326 210 43 20 140 59 160 64 8 2 48 12 87 23 134
37 239 48 403 44 69 -2 136 -5 150 -6z m2334 -1412 c1 -178 -3 -249 -20 -390
-17 -140 -89 -411 -150 -566 -48 -123 -113 -251 -124 -247 -5 2 -162 91 -349
198 l-339 194 15 36 c58 129 116 304 129 388 3 20 7 39 9 42 2 3 6 33 10 65 4
33 8 71 11 85 6 34 5 270 0 298 -4 19 -2 23 12 17 82 -35 116 -43 169 -40 58
3 123 12 155 21 9 3 25 7 37 9 63 12 241 67 366 113 50 18 50 18 59 -2 4 -12
9 -111 10 -221z m-4880 180 c166 -67 270 -94 397 -102 94 -6 96 -5 172 31 42
20 78 36 79 36 2 0 3 -84 4 -188 0 -103 4 -205 8 -227 4 -22 9 -53 11 -70 12
-87 69 -276 114 -379 12 -27 20 -50 18 -52 -1 -2 -48 -29 -102 -60 -55 -31
-115 -65 -134 -76 -19 -11 -113 -64 -210 -120 -97 -55 -195 -111 -218 -124
l-41 -24 -45 103 c-173 395 -241 782 -217 1227 4 69 7 80 18 80 4 0 70 -25
146 -55z m991 -1252 c129 -174 361 -374 549 -474 l78 -42 -41 -36 c-27 -24
-53 -62 -75 -111 -37 -82 -95 -271 -121 -395 -9 -43 -17 -81 -19 -84 -2 -3 -7
-31 -10 -61 -4 -30 -10 -58 -15 -63 -7 -7 -229 101 -287 140 -16 11 -56 37
-89 58 -128 83 -262 194 -389 321 -124 124 -197 210 -299 355 l-47 67 82 47
c46 26 97 55 113 65 17 9 80 45 140 80 61 35 166 96 235 135 69 40 128 73 131
74 4 1 33 -34 64 -76z m2844 3 c31 -18 76 -45 101 -58 25 -14 112 -64 194
-112 82 -47 151 -86 152 -86 2 0 32 -17 66 -38 35 -20 75 -44 90 -51 l27 -14
-42 -61 c-23 -34 -44 -63 -47 -66 -3 -3 -32 -39 -65 -80 -75 -95 -257 -277
-355 -356 -159 -129 -443 -307 -459 -288 -4 5 -15 52 -25 104 -36 200 -73 327
-126 431 -42 83 -90 146 -125 165 -19 10 -35 22 -35 25 0 4 34 28 75 53 168
106 345 265 454 409 24 31 48 57 53 57 6 0 36 -15 67 -34z"/>
</g>
</svg>
